<svg width="174" height="48" viewBox="0 0 174 48" fill="none" xmlns="http://www.w3.org/2000/svg">
<path d="M29.1655 16.3658H10.8505C15.3826 10.5689 24.6491 10.5206 29.1655 16.3658Z" fill="#DC2626"/>
<path d="M32 23.2578H21.1917C20.9113 21.8569 20.958 20.4076 20.958 18.9745H30.8008C31.5016 20.2466 31.891 21.7924 31.9844 23.2578H32Z" fill="#DC2626"/>
<path d="M19.478 26.2529C19.3379 26.4622 17.36 32.71 14.8681 34.8677C12.3763 37.0254 14.1673 35.4152 14.2452 35.5279C14.323 35.6406 14.8214 35.6889 14.8214 35.6889H24.8978C24.8978 35.6889 25.3806 35.6406 25.474 35.5279C25.5675 35.4152 25.147 35.1092 24.8511 34.8677C22.3748 32.6939 20.3813 26.4461 20.2412 26.2529C19.992 25.8503 19.7272 25.8503 19.4625 26.2529H19.478Z" fill="#DC2626"/>
<path d="M18.7305 18.9744C18.7305 20.4075 18.7772 21.8406 18.5747 23.2576H8C8.14017 21.7762 8.48279 20.2787 9.18362 18.9744H18.7305Z" fill="#DC2626"/>
<path d="M31.9994 25.9468C31.6879 28.1206 30.9248 30.2462 29.5699 31.953C26.3616 31.2928 23.496 28.9902 22.1099 25.9468H31.9994Z" fill="#DC2626"/>
<path d="M17.7333 25.9468C16.6899 28.4588 14.4939 30.536 12.0177 31.5022C11.7218 31.6149 10.7094 31.9853 10.4758 31.9692C10.2422 31.9531 9.80615 31.0835 9.69713 30.8903C8.84056 29.4411 8.2176 27.6537 8.07744 25.9468H17.7333Z" fill="#DC2626"/>
<path d="M161.321 19.0004V28.6749C161.321 30.814 159.692 32.2076 157.185 32.2076C154.677 32.2076 153.08 30.8626 153.08 28.8531V19.0004H148.417V28.2698C148.417 33.2934 150.957 35.951 155.763 35.951C160.57 35.951 159.676 35.0435 160.89 33.5365L161.369 32.9369V35.9186H166V18.9842H161.305L161.321 19.0004Z" fill="#292524"/>
<path d="M139.123 25.3856L137.191 25.2235C136.057 25.1263 134.907 24.8832 134.907 23.7651C134.907 22.6469 135.307 22.0473 138.006 22.0473C140.704 22.0473 139.858 22.258 140.289 22.6793C140.72 23.1006 140.752 23.6516 140.752 24.154H145.543C145.607 22.7279 145.208 21.5287 144.33 20.5888C143.052 19.2276 140.816 18.4821 138.006 18.4821C133.406 18.4821 130.452 20.5564 130.452 23.7813C130.452 27.0061 132.784 28.3511 136.872 28.7401L138.804 28.9021C140.848 29.0642 141.679 29.5341 141.679 30.4902C141.679 31.4463 140.72 32.4186 138.022 32.4186C135.323 32.4186 134.508 30.9764 134.476 30.1823H129.829C129.797 31.5922 130.244 32.8076 131.155 33.7637C132.56 35.2222 134.923 36 138.022 36C142.733 36 146.166 33.6827 146.166 30.5064C146.166 27.3302 143.595 25.8393 139.139 25.418L139.123 25.3856Z" fill="#292524"/>
<path d="M127.561 22.4038V19.0007H123.84V12H119.145V19.0007H116.079V22.4038H119.145V29.7447C119.145 33.9095 121.525 35.9513 126.395 35.9513H127.369V32.1593H126.124C124.239 32.1593 123.856 31.0411 123.856 30.1012V25.1586C123.856 23.7002 122.068 23.2302 121.189 23.2302H120.918V22.4038H127.577H127.561Z" fill="#292524"/>
<path d="M105.858 19.0005H100.189V22.6142L106.928 22.6467C108.573 22.6467 109.707 22.9546 109.915 24.4778L109.962 24.7857H106.162C101.051 24.7857 98.1129 26.8114 98.1129 30.3603C98.1129 33.9093 100.812 35.9674 105.331 35.9674C109.851 35.9674 108.876 35.546 110.026 34.6709L110.457 34.3468V35.9511H114.466V25.2395C114.466 20.8317 111.959 19.0167 105.842 19.0167L105.858 19.0005ZM109.962 29.226C109.962 30.2307 109.579 32.5805 106.034 32.5805C102.489 32.5805 102.728 31.7702 102.728 30.3441C102.728 28.9181 103.958 28.043 106.034 28.043H109.962V29.226Z" fill="#292524"/>
<path d="M88.8194 18.4981H88.6756C86.2323 18.4981 84.2999 19.3732 83.1022 21.0423L82.8786 21.3502L82.6551 21.0423C81.4893 19.357 79.6368 18.4981 77.1455 18.4981H77.0337C75.4527 18.4981 73.0253 19.9079 72.3706 20.9613L71.8755 21.7553V19.0167H67.3082V35.9673H71.9394V25.9525C71.9394 23.6676 73.4884 22.3549 76.1714 22.3549C78.8543 22.3549 80.1318 23.7648 80.1318 25.8553L80.0999 35.9835H84.1722V25.9687C84.1722 23.7162 85.5456 22.3711 87.8292 22.3711C90.1129 22.3711 91.135 23.6514 91.135 25.7904V35.9835H95.8301V26.4224C95.8301 21.3178 93.3228 18.4981 88.7874 18.4981H88.8194Z" fill="#292524"/>
<path d="M49.1027 12L40 35.9513H44.6951L47.2822 29.3072H57.4868L60.1059 35.9513H64.9447L55.5705 12H49.1027ZM48.7514 25.2235L52.2807 15.7758L55.8899 25.2235H48.7514Z" fill="#292524"/>
</svg>
